<svg width="20" height="21" viewBox="0 0 20 21" fill="none" xmlns="http://www.w3.org/2000/svg">
<path d="M20 10.8471C20 16.1672 15.6681 20.5 10.3491 20.5C8.2431 20.5 6.24612 19.8283 4.56466 18.566C3.95517 18.1094 3.8319 17.2441 4.28918 16.6341C4.74651 16.0266 5.61203 15.9025 6.22022 16.3592C7.42022 17.2607 8.84953 17.7363 10.3534 17.7363C14.1509 17.7365 17.2414 14.6453 17.2414 10.8471C17.2414 7.04883 14.1522 3.95764 10.3534 3.95764C8.18535 3.9585 6.14655 4.99666 4.85345 6.70823H7.58621C8.34785 6.70823 8.96552 7.32518 8.96552 8.08784C8.96552 8.85051 8.34914 9.46745 7.58621 9.46745H1.37931C0.617672 9.46745 0 8.85051 0 8.08784V1.87961C0 1.11694 0.617672 0.5 1.37931 0.5C2.14095 0.5 2.75862 1.11694 2.75862 1.87961V4.90742C4.57328 2.59442 7.3319 1.19455 10.3491 1.19455C15.6681 1.19455 20 5.52695 20 10.8471Z" fill="#136AE4"/>
</svg>
