<svg width="23" height="23" viewBox="0 0 23 23" fill="none" xmlns="http://www.w3.org/2000/svg">
<path fill-rule="evenodd" clip-rule="evenodd" d="M2.88911 2.11453C2.69507 1.91805 2.3785 1.91606 2.18201 2.11009C1.98553 2.30413 1.98354 2.6207 2.17757 2.81719L10.6241 11.3704L2.17719 19.924C1.98316 20.1205 1.98515 20.4371 2.18163 20.6311C2.37812 20.8251 2.69469 20.8232 2.88873 20.6267L11.3268 12.082L19.7649 20.6267C19.9589 20.8232 20.2755 20.8251 20.472 20.6311C20.6684 20.4371 20.6704 20.1205 20.4764 19.924L12.0295 11.3704L20.476 2.81719C20.67 2.6207 20.6681 2.30413 20.4716 2.11009C20.2751 1.91606 19.9585 1.91805 19.7645 2.11453L11.3268 10.6588L2.88911 2.11453Z" fill="#020202"/>
<path d="M2.18201 2.11009L1.12803 1.0428L1.12803 1.0428L2.18201 2.11009ZM2.88911 2.11453L3.9564 1.06055L2.88911 2.11453ZM2.17757 2.81719L1.11028 3.87117L1.11028 3.87117L2.17757 2.81719ZM10.6241 11.3704L11.6914 12.4244L12.7322 11.3704L11.6914 10.3164L10.6241 11.3704ZM2.17719 19.924L1.1099 18.87L1.10989 18.87L2.17719 19.924ZM2.18163 20.6311L1.12765 21.6984L1.12765 21.6984L2.18163 20.6311ZM2.88873 20.6267L3.95602 21.6807H3.95602L2.88873 20.6267ZM11.3268 12.082L12.3941 11.028L11.3268 9.94724L10.2595 11.028L11.3268 12.082ZM19.7649 20.6267L18.6976 21.6807H18.6976L19.7649 20.6267ZM20.472 20.6311L21.5259 21.6984L21.5259 21.6984L20.472 20.6311ZM20.4764 19.924L21.5437 18.87L21.5437 18.87L20.4764 19.924ZM12.0295 11.3704L10.9622 10.3164L9.92137 11.3704L10.9622 12.4244L12.0295 11.3704ZM20.476 2.81719L19.4087 1.7632V1.7632L20.476 2.81719ZM20.4716 2.11009L21.5256 1.0428L21.5255 1.04279L20.4716 2.11009ZM19.7645 2.11453L18.6972 1.06055V1.06055L19.7645 2.11453ZM11.3268 10.6588L10.2595 11.7128L11.3268 12.7936L12.3941 11.7128L11.3268 10.6588ZM3.23599 3.17739C2.84303 3.56546 2.20987 3.56148 1.82181 3.16851L3.9564 1.06055C3.18027 0.274614 1.91397 0.266665 1.12803 1.0428L3.23599 3.17739ZM3.24487 1.7632C3.63294 2.15617 3.62896 2.78933 3.23599 3.17739L1.12803 1.0428C0.342096 1.81893 0.334146 3.08523 1.11028 3.87117L3.24487 1.7632ZM11.6914 10.3164L3.24487 1.7632L1.11028 3.87117L9.55679 12.4244L11.6914 10.3164ZM3.24449 20.978L11.6914 12.4244L9.55679 10.3164L1.1099 18.87L3.24449 20.978ZM3.23561 19.5638C3.62858 19.9519 3.63255 20.585 3.24449 20.978L1.10989 18.87C0.333769 19.656 0.341714 20.9223 1.12765 21.6984L3.23561 19.5638ZM1.82143 19.5727C2.2095 19.1797 2.84265 19.1758 3.23561 19.5638L1.12765 21.6984C1.91359 22.4745 3.17989 22.4666 3.95602 21.6807L1.82143 19.5727ZM10.2595 11.028L1.82143 19.5727L3.95602 21.6807L12.3941 13.136L10.2595 11.028ZM20.8322 19.5727L12.3941 11.028L10.2595 13.136L18.6976 21.6807L20.8322 19.5727ZM19.418 19.5638C19.8109 19.1758 20.4441 19.1797 20.8322 19.5727L18.6976 21.6807C19.4737 22.4666 20.74 22.4745 21.5259 21.6984L19.418 19.5638ZM19.4091 20.978C19.021 20.585 19.025 19.9519 19.418 19.5638L21.5259 21.6984C22.3119 20.9223 22.3198 19.656 21.5437 18.87L19.4091 20.978ZM10.9622 12.4244L19.4091 20.978L21.5437 18.87L13.0968 10.3164L10.9622 12.4244ZM19.4087 1.7632L10.9622 10.3164L13.0968 12.4244L21.5433 3.87117L19.4087 1.7632ZM19.4176 3.17739C19.0246 2.78932 19.0206 2.15617 19.4087 1.7632L21.5433 3.87117C22.3194 3.08523 22.3115 1.81893 21.5256 1.0428L19.4176 3.17739ZM20.8318 3.16851C20.4437 3.56148 19.8106 3.56545 19.4176 3.17739L21.5255 1.04279C20.7396 0.266668 19.4733 0.274612 18.6972 1.06055L20.8318 3.16851ZM12.3941 11.7128L20.8318 3.16851L18.6972 1.06055L10.2595 9.60484L12.3941 11.7128ZM1.82181 3.16851L10.2595 11.7128L12.3941 9.60484L3.9564 1.06055L1.82181 3.16851Z" fill="#020202"/>
</svg>
